<svg xmlns="http://www.w3.org/2000/svg" width="1200" height="720" viewBox="0 0 1200 720">
<defs><linearGradient id="bg" x1="0" y1="0" x2="1" y2="1"><stop stop-color="#f5f7fb"/><stop offset="1" stop-color="#eef2fa"/></linearGradient><filter id="s"><feDropShadow dx="0" dy="12" stdDeviation="18" flood-opacity=".12"/></filter></defs>
<rect width="1200" height="720" rx="30" fill="url(#bg)"/>
<rect x="22" y="22" width="208" height="676" rx="24" fill="#fff" stroke="#dfe5f0"/>
<rect x="42" y="42" width="42" height="42" rx="12" fill="#17234b"/><text x="63" y="69" text-anchor="middle" font-family="Arial" font-size="14" font-weight="700" fill="#fff">AE</text><text x="96" y="62" font-family="Arial" font-size="16" font-weight="700" fill="#17234b">Alex Educator</text><text x="96" y="78" font-family="Arial" font-size="9" fill="#7f8aa8">АДМИН-ПАНЕЛЬ</text>
<text x="44" y="118" font-family="Arial" font-size="9" font-weight="700" fill="#8792b2">КАТЕГОРИИ</text>
<g font-family="Arial"><rect x="36" y="136" width="180" height="56" rx="14" fill="#3158aa"/><text x="58" y="159" font-size="12" font-weight="700" fill="#fff">Заявки</text><text x="58" y="175" font-size="9" fill="#dfe8ff">Обращения с сайта</text><rect x="184" y="151" width="20" height="18" rx="9" fill="#fff"/><text x="194" y="164" text-anchor="middle" font-size="9" fill="#3158aa">12</text>
<g fill="#17234b" font-size="12" font-weight="700"><text x="58" y="226">Договоры</text><text x="58" y="278">Ученики</text><text x="58" y="330">Расписание</text><text x="58" y="382">Отзывы</text><text x="58" y="434">Тарифы</text><text x="58" y="486">Рассылки</text><text x="58" y="538">Настройки</text></g>
<g fill="#8792b2" font-size="8"><text x="58" y="239">Учебные договоры</text><text x="58" y="291">База учеников</text><text x="58" y="343">Уроки и занятия</text><text x="58" y="395">Отзывы и оценки</text><text x="58" y="447">Управление тарифами</text><text x="58" y="499">Email и Telegram</text><text x="58" y="551">Система и боты</text></g></g>
<rect x="252" y="22" width="926" height="116" rx="24" fill="#edf3ff" stroke="#dce6f8"/><text x="282" y="59" font-family="Arial" font-size="10" fill="#6679a7">ОБРАЩЕНИЯ С САЙТА</text><text x="282" y="94" font-family="Arial" font-size="30" font-weight="700" fill="#152044">Панель управления</text><text x="282" y="116" font-family="Arial" font-size="11" fill="#6f7d9f">Заявки, ученики, расписание и договоры — в одном месте.</text>
<g filter="url(#s)" font-family="Arial"><g><rect x="252" y="158" width="208" height="92" rx="18" fill="#fff"/><circle cx="286" cy="193" r="18" fill="#eaf0ff"/><text x="316" y="188" font-size="10" fill="#6f7d9f">Новых заявок</text><text x="316" y="220" font-size="25" font-weight="700" fill="#17234b">12</text></g><g><rect x="476" y="158" width="208" height="92" rx="18" fill="#fff"/><circle cx="510" cy="193" r="18" fill="#e7f7ef"/><text x="540" y="188" font-size="10" fill="#6f7d9f">Учеников</text><text x="540" y="220" font-size="25" font-weight="700" fill="#17234b">156</text></g><g><rect x="700" y="158" width="208" height="92" rx="18" fill="#fff"/><circle cx="734" cy="193" r="18" fill="#f2ecff"/><text x="764" y="188" font-size="10" fill="#6f7d9f">Уроков сегодня</text><text x="764" y="220" font-size="25" font-weight="700" fill="#17234b">28</text></g><g><rect x="924" y="158" width="254" height="92" rx="18" fill="#fff"/><circle cx="958" cy="193" r="18" fill="#fff2e6"/><text x="988" y="188" font-size="10" fill="#6f7d9f">Активных договоров</text><text x="988" y="220" font-size="25" font-weight="700" fill="#17234b">23</text></g></g>
<rect x="252" y="272" width="926" height="70" rx="18" fill="#fff" stroke="#e3e8f2"/><text x="274" y="298" font-family="Arial" font-size="9" fill="#6f7d9f">ПОИСК ПО ВСЕМ СТОЛБЦАМ</text><rect x="274" y="307" width="205" height="24" rx="8" fill="#f7f9fc" stroke="#dde4ee"/><text x="288" y="323" font-family="Arial" font-size="9" fill="#98a2b8">ID, дата, имя, контакт...</text><text x="508" y="298" font-family="Arial" font-size="9" fill="#6f7d9f">СТАТУС</text><rect x="508" y="307" width="170" height="24" rx="8" fill="#f7f9fc" stroke="#dde4ee"/><text x="522" y="323" font-family="Arial" font-size="9" fill="#17234b">Все статусы</text><rect x="700" y="307" width="150" height="24" rx="8" fill="#f7f9fc" stroke="#dde4ee"/><text x="714" y="323" font-family="Arial" font-size="9" fill="#98a2b8">С даты</text><rect x="870" y="307" width="150" height="24" rx="8" fill="#f7f9fc" stroke="#dde4ee"/><text x="884" y="323" font-family="Arial" font-size="9" fill="#98a2b8">По дату</text><rect x="1038" y="307" width="118" height="24" rx="8" fill="#f7f9fc" stroke="#ccd6e8"/><text x="1097" y="323" text-anchor="middle" font-family="Arial" font-size="9" font-weight="700" fill="#3158aa">Сбросить</text>
<rect x="252" y="362" width="926" height="272" rx="18" fill="#fff" stroke="#e3e8f2"/><g font-family="Arial" fill="#75819e" font-size="9" font-weight="700"><text x="274" y="390">ID</text><text x="334" y="390">ДАТА</text><text x="438" y="390">ИМЯ</text><text x="560" y="390">КОНТАКТ</text><text x="704" y="390">ФОРМАТ</text><text x="832" y="390">РЕЗУЛЬТАТ ТЕСТА</text><text x="984" y="390">СТАТУС</text><text x="1092" y="390">ДЕЙСТВИЯ</text></g>
<line x1="252" y1="405" x2="1178" y2="405" stroke="#edf0f5"/>
<g font-family="Arial" font-size="10" fill="#24304f"><text x="274" y="437" font-weight="700">#120</text><text x="334" y="437">14.05.2026 11:24</text><text x="438" y="437" font-weight="700">Иван Петров</text><text x="560" y="437">@ivanpetrov</text><text x="704" y="437">Индивидуально</text><text x="832" y="437">B1, 72/100</text><rect x="974" y="420" width="70" height="24" rx="8" fill="#eaf1ff"/><text x="1009" y="436" text-anchor="middle" fill="#2857bd">Новая</text><text x="1100" y="437">◉  ✎  ×</text>
<text x="274" y="485" font-weight="700">#119</text><text x="334" y="485">14.05.2026 10:15</text><text x="438" y="485" font-weight="700">Мария Кузнецова</text><text x="560" y="485">+7 (999) 123-45-67</text><text x="704" y="485">Группа</text><text x="832" y="485">A2, 45/100</text><rect x="974" y="468" width="70" height="24" rx="8" fill="#fff1e2"/><text x="1009" y="484" text-anchor="middle" fill="#d77d13">В работе</text><text x="1100" y="485">◉  ✎  ×</text>
<text x="274" y="533" font-weight="700">#118</text><text x="334" y="533">13.05.2026 21:40</text><text x="438" y="533" font-weight="700">Дмитрий Соколов</text><text x="560" y="533">@dsokolov</text><text x="704" y="533">Индивидуально</text><text x="832" y="533">B2, 85/100</text><rect x="974" y="516" width="70" height="24" rx="8" fill="#e6f6ec"/><text x="1009" y="532" text-anchor="middle" fill="#2d8c59">Связались</text><text x="1100" y="533">◉  ✎  ×</text></g>
<g stroke="#edf0f5"><line x1="252" y1="453" x2="1178" y2="453"/><line x1="252" y1="501" x2="1178" y2="501"/><line x1="252" y1="549" x2="1178" y2="549"/></g><text x="274" y="610" font-family="Arial" font-size="9" fill="#8390aa">Показано 1–3 из 120 заявок</text>
<rect x="252" y="652" width="926" height="46" rx="16" fill="#fff" stroke="#e3e8f2"/><text x="280" y="680" font-family="Arial" font-size="10" fill="#6f7d9f">Конверсия заявок</text><text x="392" y="681" font-family="Arial" font-size="18" font-weight="700" fill="#17234b">38%</text><text x="520" y="680" font-family="Arial" font-size="10" fill="#6f7d9f">Среднее время ответа</text><text x="682" y="681" font-family="Arial" font-size="18" font-weight="700" fill="#17234b">2 ч 15 мин</text><text x="850" y="680" font-family="Arial" font-size="10" fill="#6f7d9f">Всего заявок</text><text x="948" y="681" font-family="Arial" font-size="18" font-weight="700" fill="#17234b">482</text>
</svg>