<svg xmlns="http://www.w3.org/2000/svg" viewBox="0 0 1335 670" fill="none">
  <defs>
    <linearGradient id="blue" x1="0" y1="0" x2="1" y2=".7"><stop stop-color="#3175ff"/><stop offset=".48" stop-color="#a5c0fa"/><stop offset="1" stop-color="#ecedf1"/></linearGradient>
    <linearGradient id="glass" x2="1" y2="1"><stop stop-color="#fff" stop-opacity=".65"/><stop offset="1" stop-color="#eff4ff" stop-opacity=".2"/></linearGradient>
    <linearGradient id="cream" x2=".7" y2="1"><stop stop-color="#fffaf0"/><stop offset="1" stop-color="#e9dcc5"/></linearGradient>
    <radialGradient id="haze"><stop stop-color="#bfd4ff" stop-opacity=".6"/><stop offset="1" stop-color="#bfd4ff" stop-opacity="0"/></radialGradient>
  </defs>
  <ellipse cx="-5" cy="172" rx="73" ry="100" fill="url(#haze)"/>
  <path d="M-30 77C76 35 153 157 115 214 90 254 40 233-7 287M128-20c0 0 0 0 0 0M1338 146c-60 35-67 123 0 173M125 479c87-4 113 101 204 63M1152 535c31-27 52 6 85 17" stroke="#6b97e2" stroke-opacity=".22"/>
  <path d="M-30 364c65 25 63 64 116 69 85 7 77 108 102 168l-15 98H-30Z" fill="url(#blue)"/>
  <path d="M1301-5c-51 49-61 115 6 166l50 39V-5Z" fill="url(#blue)"/>
  <path d="M1246 269c46-23 81-4 110 34v152c-56-18-84-21-110-8Z" fill="url(#cream)" opacity=".5"/>
  <path d="M1131 670c8-67 60-72 82-161 16-64 77-98 134-73v234Z" fill="url(#cream)"/>
  <path d="M1272 670c38-16 51-30 77-60v60Z" fill="url(#blue)"/>
  <g transform="translate(-43 489) rotate(-12)">
    <rect width="138" height="212" rx="25" fill="url(#glass)" stroke="#fff" stroke-width="2"/>
    <rect x="17" y="41" width="74" height="136" rx="18" fill="url(#glass)" stroke="#fff"/>
    <path d="m29 143 21-34q5-8 10 0l20 34Z" fill="#658bc8" opacity=".65"/>
  </g>
</svg>
